<?xml version="1.0" encoding="UTF-8"?>
<svg xmlns:xlink="http://www.w3.org/1999/xlink" height="20px" version="1.1" viewBox="0 0 17 20"
    width="17px" xmlns="http://www.w3.org/2000/svg">
    <!-- Generator: sketchtool 63.1 (101010) - https://sketch.com -->
    <title>8910FC37-5E7B-4C76-9352-974E027BE03B</title>
    <desc>Created with sketchtool.</desc>
    <defs>
        <path
            d="M4.36179251,0.626 C4.84519896,0.626 5.29571415,0.778201077 5.65179251,1.068 C5.79873975,1.17821043 5.92687573,1.30042646 6.0401874,1.4423091 L6.14870531,1.59103101 L7.96381766,4.3766499 C8.59165673,5.3184085 8.36646905,6.5831058 7.48337263,7.24983328 L7.3527615,7.3409128 L4.83979251,8.974 L4.91996306,9.21877761 C5.49668585,10.8657751 6.56107386,12.3042083 7.96139828,13.3342254 L8.22785882,13.5225187 L8.43579251,13.658 L10.5711102,11.6519 C10.8749287,11.3659531 11.2642256,11.181268 11.674498,11.1133066 L11.8514252,11.0913717 L12.0297925,11.084 C12.5436546,11.084 13.0436746,11.2759338 13.4388663,11.6251435 L13.5819717,11.7634018 L15.8359744,14.1622953 C16.0551336,14.3571034 16.2118588,14.6015949 16.3172877,14.8915899 C16.5868631,15.655387 16.433544,16.4942447 15.895039,17.0826368 L15.7737631,17.2047686 L14.6176548,18.2885771 C13.863677,18.9797234 12.9130923,19.374 11.9397925,19.374 L11.6782779,19.3684841 C11.6576829,19.3670977 11.6394704,19.3653998 11.6232023,19.363337 L11.5797925,19.356 L11.4997751,19.3521389 C11.0609676,19.297288 10.6325407,19.2235801 10.1928533,19.127988 C4.0709936,17.7613343 -0.233213565,12.1836601 0.00979251442,5.95 C0.00979251442,5.82947335 0.0134180161,5.70798298 0.0205210552,5.57946275 L0.0543470082,5.14150193 L0.0838459112,4.84273213 L0.103653576,4.62798263 C0.236421106,3.56584239 0.806780085,2.62422008 1.68112549,1.97646568 L1.87308938,1.84222232 L3.19679304,0.972000848 C3.56067883,0.744572231 3.95789581,0.626 4.36179251,0.626 Z M4.36179251,2.472 C4.30616256,2.472 4.25414072,2.4798773 4.21541089,2.48751513 L4.16849565,2.49777768 L2.85714261,3.36002515 C2.38592335,3.67417132 2.0630653,4.14112367 1.94062883,4.65636109 L1.90731111,4.82975186 L1.85775925,5.35626285 C1.84554143,5.51636338 1.83436928,5.70091827 1.81942779,5.96909434 C1.61654966,11.2777387 5.16375666,15.9776367 10.2930293,17.2580014 L10.5796028,17.3255969 C10.7080633,17.3561827 10.8282736,17.3811036 10.9655758,17.4056737 L11.6337925,17.51 L11.7498506,17.5197097 L11.8094743,17.5262595 C11.8356619,17.5275305 11.8706319,17.528 11.9217925,17.528 C12.3769255,17.528 12.8387575,17.3622677 13.2093275,17.0620542 L13.3438219,16.9432314 L14.4986525,15.8605983 C14.579561,15.7859135 14.6086372,15.6560396 14.5715542,15.5496953 L14.5457977,15.4993753 L14.5096133,15.4545982 L12.2140879,13.0141819 C12.1691335,12.9636083 12.0913038,12.93 12.0117925,12.93 C11.9613544,12.93 11.9144852,12.9417293 11.8723533,12.9659126 L11.8128544,13.0116184 L9.41334591,15.2495534 C9.16063036,15.5022689 8.8375459,15.63 8.48379251,15.63 C8.25170584,15.63 8.02249632,15.5708492 7.81913904,15.4546348 C5.43676131,14.0743683 3.66166849,11.7697734 2.9434106,9.1235587 C2.78730961,8.55118841 3.01489254,7.9604955 3.45926344,7.66476509 L3.56558291,7.60189823 L6.32506134,5.79238404 C6.40396542,5.73715118 6.4509667,5.66845701 6.46872126,5.57673219 C6.4803401,5.53025684 6.4759876,5.48315829 6.45434058,5.43099079 L6.42687972,5.37696899 L4.62779251,2.614 C4.60221964,2.57990283 4.58188968,2.55957288 4.54779251,2.534 C4.4903406,2.49091106 4.43360741,2.472 4.36179251,2.472 Z"
            id="path-1"></path>
        <rect height="20" id="path-3" width="20" x="0" y="0"></rect>
    </defs>
    <g fill="none" fill-rule="evenodd" id="📱-iOS-App" stroke="none" stroke-width="1">
        <g id="10.3-Class-Detail" transform="translate(-175.000000, -309.000000)">
            <g id="Phone-Number" transform="translate(166.000000, 304.000000)">
                <g id="Icon/At-Symbol-Copy" transform="translate(7.000000, 5.000000)">
                    <g id="Fill/MT-Grays/Light-Gray" transform="translate(2.000000, 0.000000)">
                        <mask fill="white" id="mask-2">
                            <use xlink:href="#path-1"></use>
                        </mask>
                        <use fill="#FFFFFF" fill-rule="nonzero" id="Mask"
                            xlink:href="#path-1"></use>
                        <g mask="url(#mask-2)">
                            <g transform="translate(8.000000, 10.000000) rotate(-180.000000) translate(-8.000000, -10.000000) translate(-2.000000, 0.000000)">
                                <mask fill="white" id="mask-4">
                                    <use xlink:href="#path-3"></use>
                                </mask>
                                <use fill="#FFFFFF" fill-rule="evenodd" id="Elevation" stroke="none"
                                    xlink:href="#path-3"></use>
                                <rect fill="#FFFFFF" fill-rule="evenodd" height="20" id="Color"
                                    mask="url(#mask-4)" stroke="none" width="20" x="0" y="0"></rect>
                            </g>
                        </g>
                    </g>
                </g>
            </g>
        </g>
    </g>
</svg>